<svg width="167" height="38" viewBox="0 0 167 38" fill="none" xmlns="http://www.w3.org/2000/svg">
<rect width="4" height="12" rx="1" transform="matrix(1 0 0 -1 3 34)" fill="#313847"/>
<rect width="4" height="20" rx="1" transform="matrix(1 0 0 -1 9 34)" fill="#313847"/>
<rect x="37" y="34" width="4" height="12" rx="1" transform="rotate(180 37 34)" fill="#313847"/>
<rect x="31" y="34" width="4" height="20" rx="1" transform="rotate(180 31 34)" fill="#313847"/>
<rect width="4" height="30" rx="1" transform="matrix(1 0 0 -1 15 34)" fill="#313847"/>
<rect width="4" height="30" rx="1" transform="matrix(1 0 0 -1 21 34)" fill="#313847"/>
<path d="M59.6479 13.2C61.1519 13.2 62.4639 13.456 63.5839 13.968C64.7039 14.48 65.5599 15.176 66.1519 16.056C66.7439 16.936 67.0399 17.92 67.0399 19.008C67.0399 20.8 66.4799 22.208 65.3599 23.232C64.2399 24.24 62.3359 24.744 59.6479 24.744H56.4799V29.352C56.4799 29.528 56.4159 29.68 56.2879 29.808C56.1599 29.936 56.0079 30 55.8319 30H50.6719C50.4959 30 50.3439 29.936 50.2159 29.808C50.0879 29.68 50.0239 29.528 50.0239 29.352V13.848C50.0239 13.672 50.0879 13.52 50.2159 13.392C50.3439 13.264 50.4959 13.2 50.6719 13.2H59.6479ZM59.5519 20.304C59.9359 20.304 60.2399 20.192 60.4639 19.968C60.6879 19.728 60.7999 19.416 60.7999 19.032C60.7999 18.632 60.6879 18.304 60.4639 18.048C60.2399 17.792 59.9359 17.664 59.5519 17.664H56.5039V20.304H59.5519Z" fill="#313847"/>
<path d="M73.1346 29.184C72.9265 29.728 72.5666 30 72.0546 30H67.5186C67.3746 30 67.2466 29.952 67.1346 29.856C67.0386 29.744 66.9906 29.616 66.9906 29.472L67.0146 29.328L72.2466 13.992C72.3106 13.784 72.4306 13.6 72.6066 13.44C72.7826 13.28 73.0226 13.2 73.3266 13.2H79.9986C80.3026 13.2 80.5426 13.28 80.7185 13.44C80.8946 13.6 81.0146 13.784 81.0786 13.992L86.3106 29.328L86.3345 29.472C86.3345 29.616 86.2785 29.744 86.1665 29.856C86.0705 29.952 85.9505 30 85.8065 30H81.2706C80.7586 30 80.3986 29.728 80.1906 29.184L79.5906 27.504H73.7346L73.1346 29.184ZM76.6626 17.832L74.9586 22.824H78.3666L76.6626 17.832Z" fill="#313847"/>
<path d="M102.805 25.08C102.981 25.08 103.133 25.144 103.261 25.272C103.389 25.4 103.453 25.552 103.453 25.728V29.352C103.453 29.528 103.389 29.68 103.261 29.808C103.133 29.936 102.981 30 102.805 30H88.7892C88.6132 30 88.4612 29.936 88.3332 29.808C88.2052 29.68 88.1412 29.528 88.1412 29.352V13.848C88.1412 13.672 88.2052 13.52 88.3332 13.392C88.4612 13.264 88.6132 13.2 88.7892 13.2H93.9732C94.1492 13.2 94.3012 13.264 94.4292 13.392C94.5572 13.52 94.6212 13.672 94.6212 13.848V25.08H102.805Z" fill="#313847"/>
<path d="M110.916 29.184C110.708 29.728 110.348 30 109.836 30H105.3C105.156 30 105.028 29.952 104.916 29.856C104.82 29.744 104.772 29.616 104.772 29.472L104.796 29.328L110.028 13.992C110.092 13.784 110.212 13.6 110.388 13.44C110.564 13.28 110.804 13.2 111.108 13.2H117.78C118.084 13.2 118.324 13.28 118.5 13.44C118.676 13.6 118.796 13.784 118.86 13.992L124.092 29.328L124.116 29.472C124.116 29.616 124.06 29.744 123.948 29.856C123.852 29.952 123.732 30 123.588 30H119.052C118.54 30 118.18 29.728 117.972 29.184L117.372 27.504H111.516L110.916 29.184ZM114.444 17.832L112.74 22.824H116.148L114.444 17.832Z" fill="#313847"/>
<path d="M137.906 13.848C138.146 13.416 138.49 13.2 138.938 13.2H143.33C143.506 13.2 143.658 13.264 143.786 13.392C143.914 13.52 143.978 13.672 143.978 13.848V29.352C143.978 29.528 143.914 29.68 143.786 29.808C143.658 29.936 143.506 30 143.33 30H138.986C138.81 30 138.658 29.936 138.53 29.808C138.402 29.68 138.338 29.528 138.338 29.352V21.912L136.586 25.368C136.538 25.48 136.426 25.608 136.25 25.752C136.074 25.896 135.85 25.968 135.578 25.968H133.946C133.674 25.968 133.45 25.896 133.274 25.752C133.098 25.608 132.986 25.48 132.938 25.368L131.186 21.912V29.352C131.186 29.528 131.122 29.68 130.994 29.808C130.866 29.936 130.714 30 130.538 30H126.194C126.018 30 125.866 29.936 125.738 29.808C125.61 29.68 125.546 29.528 125.546 29.352V13.848C125.546 13.672 125.61 13.52 125.738 13.392C125.866 13.264 126.018 13.2 126.194 13.2H130.586C131.034 13.2 131.378 13.416 131.618 13.848L134.762 19.608L137.906 13.848Z" fill="#313847"/>
<path d="M164.081 23.064C164.081 25.512 163.265 27.32 161.633 28.488C160.017 29.656 157.857 30.24 155.153 30.24C152.449 30.24 150.281 29.656 148.649 28.488C147.033 27.32 146.225 25.496 146.225 23.016V20.184C146.225 18.552 146.609 17.2 147.377 16.128C148.161 15.04 149.225 14.24 150.569 13.728C151.913 13.216 153.441 12.96 155.153 12.96C156.865 12.96 158.385 13.216 159.713 13.728C161.057 14.24 162.121 15.032 162.905 16.104C163.689 17.176 164.081 18.52 164.081 20.136V23.064ZM152.705 23.52C152.705 24.176 152.921 24.68 153.353 25.032C153.801 25.384 154.401 25.56 155.153 25.56C155.905 25.56 156.497 25.384 156.929 25.032C157.377 24.664 157.601 24.152 157.601 23.496V19.704C157.601 19.048 157.377 18.544 156.929 18.192C156.497 17.824 155.905 17.64 155.153 17.64C154.401 17.64 153.801 17.816 153.353 18.168C152.921 18.52 152.705 19.024 152.705 19.68V23.52Z" fill="#313847"/>
</svg>
